<?xml version="1.0" encoding="utf-8"?>
<!-- Generator: Adobe Illustrator 22.1.0, SVG Export Plug-In . SVG Version: 6.00 Build 0)  -->
<svg version="1.1" id="Capa_1" xmlns="http://www.w3.org/2000/svg" xmlns:xlink="http://www.w3.org/1999/xlink" x="0px" y="0px"
	 viewBox="0 0 795 795" style="enable-background:new 0 0 795 795;" xml:space="preserve">
<g>
	<path d="M0,647.6c0,49.9,40.6,90.5,90.5,90.5h20.1h552.1h40.2h41.9v-40.2h-41.9V597.3h41.9v-17.6h20.1H795v-40.2h-30.2V439H795
		v-40.2h-30.2h-2.5v-13.4v-20.1v-0.9l-49.6-93h52.2v-54.1L633.7,57H170.7L51.4,245.1c-20.4,16.6-33.8,41.6-33.8,69.9
		c0,49.6,40.1,89.9,89.6,90.4c-33.3,13.4-56.9,45.8-56.9,83.9c0,27.6,12.7,52,32.2,68.7C36.4,562,0,600.4,0,647.6z M57.8,315
		c0-18.8,10.4-34.9,25.7-43.6h599.3v93.9H108.1C80.4,365.3,57.8,342.7,57.8,315z M140.7,439h20.1h563.8v100.5H160.9h-20.1
		c-27.7,0-50.3-22.5-50.3-50.3C90.5,461.5,113,439,140.7,439z M90.5,597.3h20.1h552.1v100.5H110.6H90.5c-27.7,0-50.3-22.5-50.3-50.3
		C40.2,619.9,62.8,597.3,90.5,597.3z"/>
</g>
</svg>
