<?xml version="1.0" encoding="utf-8"?>
<!-- Generator: Adobe Illustrator 22.1.0, SVG Export Plug-In . SVG Version: 6.00 Build 0)  -->
<svg version="1.1" id="Capa_1" xmlns="http://www.w3.org/2000/svg" xmlns:xlink="http://www.w3.org/1999/xlink" x="0px" y="0px"
	 viewBox="0 0 464.6 364.6" style="enable-background:new 0 0 464.6 364.6;" xml:space="preserve">
<g>
	<path d="M0,343.5l87.5-315l75.4,20.9l-8.3,30h83.9V37.6h78.1v30.9H359V0.4h105.6v364.2H374h-15h-42.4h-15h-48.2h-15h-98.2V130.9
		L75.4,364.4L0,343.5z M301.6,52.6h-48.2v37.1h48.2V52.6z M301.6,152h-48.2v170.6h48.2V152z M301.6,137v-8.6h-48.2v8.6H301.6z
		 M301.6,113.4v-8.6h-48.2v8.6H301.6z M374,320.4h75.6v-276H374V320.4z M374,15.4v14h75.6v-14H374z M449.6,349.6v-14.2H374v14.2
		H449.6z M316.6,349.6H359v-266h-42.4V349.6z M301.6,349.6v-12h-48.2v12H301.6z M155.2,349.6h83.2V94.4h-83.2V349.6z M65,346
		l52.7-190l-46.5-12.9l-52.7,190L65,346z M121.7,141.6l4.1-14.9l-46.5-12.9l-4.1,14.9L121.7,141.6z M97.9,47L83.4,99.4l46.5,12.8
		l14.5-52.4L97.9,47z"/>
	<rect x="172.7" y="110.7" width="48.3" height="15"/>
	<rect x="172.7" y="137" width="48.3" height="15"/>
	<rect x="172.7" y="163.4" width="48.3" height="15"/>
	<rect x="172.7" y="316" width="48.3" height="15"/>
	<rect x="330.3" y="222.5" width="15" height="25.3"/>
	<rect x="330.3" y="262" width="15" height="57.1"/>
	<rect x="330.3" y="140.1" width="15" height="68.1"/>
	<rect x="330.3" y="100.6" width="15" height="26.4"/>
</g>
</svg>
